<?xml version="1.0" encoding="UTF-8"?> <svg xmlns="http://www.w3.org/2000/svg" width="42" height="42" viewBox="0 0 42 42" fill="none"><path d="M37.8329 20.6488C37.6924 15.979 35.9919 12.0139 32.7315 8.75344C29.4711 5.49301 25.5059 3.79255 20.8361 3.65207V0C23.6767 0.0624118 26.3362 0.644571 28.8147 1.74648C31.2932 2.84838 33.458 4.32486 35.309 6.1759C37.1601 8.02695 38.6365 10.1917 39.7384 12.6702C40.8403 15.1487 41.4225 17.8082 41.4849 20.6488H37.8329ZM28.0937 20.6488C27.9532 18.6978 27.1962 17.0317 25.8228 15.6505C24.4493 14.2692 22.7871 13.5161 20.8361 13.3912V9.73916C23.7984 9.86402 26.3221 10.9729 28.4073 13.0659C30.4925 15.1589 31.6053 17.6865 31.7458 20.6488H28.0937ZM38.8113 42C34.2227 42 29.613 40.9332 24.9823 38.7997C20.3515 36.6661 16.093 33.6562 12.2067 29.7699C8.33603 25.8836 5.33391 21.629 3.20035 17.006C1.06678 12.3831 0 7.77727 0 3.18866C0 2.45823 0.243479 1.84563 0.730437 1.35088C1.21739 0.856092 1.82609 0.608697 2.55653 0.608697H10.4976C11.1125 0.608697 11.6549 0.809264 12.1247 1.2104C12.5945 1.61153 12.8934 2.10707 13.0213 2.69702L14.4166 9.86084C14.5134 10.5257 14.4931 11.097 14.3558 11.5746C14.2184 12.0521 13.9718 12.4533 13.616 12.7779L7.99256 18.2515C8.89782 19.909 9.93183 21.4768 11.0946 22.9548C12.2574 24.4329 13.5161 25.8446 14.8708 27.19C16.2069 28.526 17.6272 29.7668 19.1318 30.9125C20.6364 32.0581 22.2611 33.1241 24.0061 34.1104L29.4703 28.5994C29.8511 28.203 30.3123 27.9252 30.8539 27.766C31.3955 27.6068 31.9581 27.5678 32.5419 27.6489L39.303 29.0255C39.9179 29.1878 40.4197 29.5015 40.8084 29.9666C41.197 30.4317 41.3913 30.9593 41.3913 31.5493V39.4435C41.3913 40.1739 41.1439 40.7826 40.6491 41.2696C40.1544 41.7565 39.5418 42 38.8113 42ZM6.26483 14.796L10.61 10.6381C10.6881 10.5757 10.7388 10.4898 10.7622 10.3806C10.7856 10.2713 10.7817 10.1699 10.7505 10.0763L9.69229 4.63541C9.66108 4.51055 9.60646 4.41691 9.52843 4.3545C9.45039 4.29205 9.34894 4.26082 9.22408 4.26082H4.01734C3.92372 4.26082 3.84569 4.29205 3.78324 4.3545C3.72078 4.41691 3.68956 4.49495 3.68956 4.58861C3.81442 6.25238 4.08677 7.94269 4.50661 9.65954C4.92649 11.3764 5.51257 13.0886 6.26483 14.796ZM27.4474 35.8382C29.0613 36.5905 30.7446 37.1656 32.4973 37.5636C34.2501 37.9616 35.8881 38.198 37.4114 38.2729C37.5051 38.2729 37.5831 38.2417 37.6455 38.1793C37.7079 38.1169 37.7392 38.0388 37.7392 37.9452V32.8228C37.7392 32.6979 37.7079 32.5965 37.6455 32.5184C37.5831 32.4403 37.4894 32.3857 37.3646 32.3545L32.2515 31.315C32.1579 31.2838 32.076 31.2799 32.0057 31.3034C31.9355 31.3268 31.8613 31.3775 31.7833 31.4555L27.4474 35.8382Z" fill="#01347C"></path></svg> 