<?xml version="1.0" encoding="UTF-8"?> <svg xmlns="http://www.w3.org/2000/svg" width="40" height="39" viewBox="0 0 40 39" fill="none"><path d="M19.9998 0.180176C9.34693 0.180176 0.679812 8.8473 0.679812 19.5002C0.679812 22.8266 1.53913 26.0975 3.16873 28.9838L0.710892 37.7534C0.630252 38.0415 0.708372 38.3506 0.916692 38.5648C1.07713 38.7303 1.29553 38.8202 1.51981 38.8202C1.58701 38.8202 1.65505 38.8118 1.72141 38.7958L10.8741 36.5287C13.6687 38.0289 16.8162 38.8202 19.9998 38.8202C30.6527 38.8202 39.3198 30.1531 39.3198 19.5002C39.3198 8.8473 30.6527 0.180176 19.9998 0.180176ZM29.7186 26.3176C29.3053 27.4617 27.3229 28.5058 26.3704 28.6461C25.5153 28.7713 24.4333 28.825 23.2456 28.4521C22.5257 28.2253 21.6017 27.9245 20.4181 27.4197C15.4428 25.2979 12.1937 20.3511 11.9451 20.0243C11.6973 19.6976 9.91981 17.3691 9.91981 14.9591C9.91981 12.5492 11.2008 11.3639 11.6561 10.8734C12.1114 10.3828 12.6481 10.2602 12.9791 10.2602C13.3101 10.2602 13.6402 10.2644 13.93 10.2778C14.2349 10.2929 14.644 10.1627 15.0463 11.1187C15.4596 12.0998 16.4517 14.5097 16.5743 14.7559C16.6986 15.0011 16.7809 15.2876 16.6163 15.6143C16.4517 15.9411 16.3693 16.1452 16.1207 16.4317C15.8721 16.7181 15.5999 17.0701 15.3765 17.2901C15.1278 17.5346 14.8699 17.7992 15.1589 18.2897C15.4479 18.7803 16.4433 20.3839 17.9183 21.6825C19.8125 23.3507 21.411 23.8682 21.9066 24.1135C22.4022 24.3587 22.692 24.3176 22.981 23.9908C23.2699 23.6632 24.2208 22.5603 24.5509 22.0706C24.8811 21.5809 25.212 21.6615 25.6673 21.8253C26.1226 21.9883 28.5611 23.1727 29.0567 23.4179C29.5523 23.6632 29.8833 23.7859 30.0076 23.99C30.1319 24.1933 30.1319 25.1744 29.7186 26.3176Z" fill="#01347C"></path></svg> 