<?xml version="1.0" encoding="UTF-8"?> <svg xmlns:sodipodi="http://sodipodi.sourceforge.net/DTD/sodipodi-0.dtd" xmlns:dc="http://purl.org/dc/elements/1.1/" xmlns:svg="http://www.w3.org/2000/svg" xmlns:inkscape="http://www.inkscape.org/namespaces/inkscape" xmlns:cc="http://creativecommons.org/ns#" xmlns:rdf="http://www.w3.org/1999/02/22-rdf-syntax-ns#" xmlns="http://www.w3.org/2000/svg" xmlns:xlink="http://www.w3.org/1999/xlink" version="1.1" id="Layer_1" x="0px" y="0px" viewBox="0 0 60 71" style="enable-background:new 0 0 60 71;" xml:space="preserve"> <style type="text/css"> .st0{fill:#01347C;} </style> <path id="path8" inkscape:connector-curvature="0" class="st0" d="M0,0v39.9c0,5.2,0.4,9.4,1.1,12.5c0.7,3,2,5.8,3.8,8.3 c0.3,0.4,0.6,0.8,0.9,1.1c2.3,2.6,5.4,4.8,9.2,6.4c2.2,0.9,4.4,1.6,6.7,2.1c0.6,0.1,1.3,0.2,1.9,0.3c0.2,0,0.4,0.1,0.6,0.1l1-1.5 c0,0,0-0.1,0-0.1c0,0,0,0,0,0c0.3-0.9,3.3-5.6,6.6-10.9c-11.7-6-19-18.1-19-31.4c0-0.8,0-1.6,0.1-2.4c0.5-7.3,3.2-14.3,7.8-19.9 c-2.1,5.6-2.7,11.1-1.9,15.2c0.6,3.2,2.1,5.6,4.3,6.8C29.5,29.9,39.7,23,46,11.1c0.2-0.3,0.3-0.6,0.5-0.9c0.1,0.7,0,1.5,0.1,2.3 c0.6,8.2-5.1,17.2-7,19.8c-3.2,4.2-5,9.8-5,15.5c0,1.8,0.2,3.7,0.6,5.5c1.6-2.5,3.2-5,4.4-6.9c1.1-1.7,2-3.1,2.5-3.8v0 c0.2-0.3,0.3-0.5,0.3-0.5l5.6-7.8l2.2-3.1l1.6-2.3l5.2-7.2l0.4-0.5l-0.6,0.9l-4.4,6.7L50.8,31l-2,3l-6.1,9.2l-2.2,3.3L25.3,69.2 l-1,1.5c0.1,0,0.2,0,0.3,0l0,0c1.5,0.2,3.1,0.3,4.6,0.3c5.2,0,9.8-0.8,13.7-2.4c4-1.6,7.5-4.1,10.3-7.3c0.2-0.2,0.4-0.4,0.6-0.6 c0.2-0.2,0.4-0.4,0.6-0.6c2.1-2.6,3.5-5.4,4.3-8.5c0.5-1.8,0.8-4,1-6.5v0c0.1-1.6,0.2-3.3,0.2-5.2V0H0z M26.6,24 c-2.8,0-5.1-2.5-5.1-5.7c0-0.3,0-0.5,0-0.7c0.3-2.8,2.4-5,5-5c0.3,0,0.7,0,1,0.1c2.3,0.5,4,2.8,4,5.6C31.7,21.5,29.4,24,26.6,24z"></path> <path id="path10" inkscape:connector-curvature="0" class="st0" d="M25.3,29.9c-0.1,0.5-0.5,0.9-1.1,0.9s-0.9-0.5-0.9-1.1 c0.1-0.5,0.5-0.9,1.1-0.9C25,28.9,25.4,29.4,25.3,29.9C25.3,29.9,25.3,29.9,25.3,29.9z"></path> <path id="path12" inkscape:connector-curvature="0" class="st0" d="M26.3,40.4c-0.1,1-1,1.7-2,1.6s-1.7-1-1.6-2c0.1-1,1-1.7,2-1.6 C25.7,38.5,26.4,39.4,26.3,40.4C26.3,40.4,26.3,40.4,26.3,40.4z"></path> <path id="path14" inkscape:connector-curvature="0" class="st0" d="M32.3,54.4c-0.1,0.6-0.6,1-1.2,1s-1-0.6-1-1.2 c0.1-0.6,0.6-1,1.2-1c0,0,0,0,0,0C31.9,53.3,32.4,53.8,32.3,54.4z"></path> <path id="path16" inkscape:connector-curvature="0" class="st0" d="M25.3,35.2c-0.1,0.8-0.8,1.4-1.7,1.3c-0.8-0.1-1.4-0.8-1.3-1.7 c0.1-0.8,0.8-1.4,1.7-1.3C24.8,33.6,25.4,34.4,25.3,35.2z"></path> <path id="path18" inkscape:connector-curvature="0" class="st0" d="M27.5,45.4c-0.1,0.9-0.9,1.6-1.8,1.5S24.1,46,24.1,45 s0.9-1.6,1.8-1.5c0,0,0,0,0,0C26.9,43.6,27.6,44.4,27.5,45.4z"></path> <path id="path20" inkscape:connector-curvature="0" class="st0" d="M29.7,50.1c-0.1,0.8-0.8,1.4-1.6,1.3c-0.8-0.1-1.4-0.8-1.3-1.6 c0.1-0.8,0.8-1.4,1.6-1.3C29.2,48.6,29.8,49.3,29.7,50.1C29.7,50.1,29.7,50.1,29.7,50.1z"></path> <polygon id="polygon22" class="st0" points="25.3,69.2 24.3,70.7 24.3,70.7 25.3,69.2 32.5,58.5 "></polygon> <path id="path24" inkscape:connector-curvature="0" class="st0" d="M32.5,58.5l-7.1,10.7c0,0,0,0,0,0L32.5,58.5z"></path> </svg> 