<?xml version="1.0" encoding="UTF-8"?> <svg xmlns:sodipodi="http://sodipodi.sourceforge.net/DTD/sodipodi-0.dtd" xmlns:dc="http://purl.org/dc/elements/1.1/" xmlns:svg="http://www.w3.org/2000/svg" xmlns:inkscape="http://www.inkscape.org/namespaces/inkscape" xmlns:cc="http://creativecommons.org/ns#" xmlns:rdf="http://www.w3.org/1999/02/22-rdf-syntax-ns#" xmlns="http://www.w3.org/2000/svg" xmlns:xlink="http://www.w3.org/1999/xlink" version="1.1" id="Layer_1" x="0px" y="0px" viewBox="0 0 60 71" style="enable-background:new 0 0 60 71;" xml:space="preserve"> <style type="text/css"> .st0{fill:#01347C;} </style> <path id="path8" inkscape:connector-curvature="0" class="st0" d="M0,0v19.2c2-3,5.7-5.2,12.2-3.7c1.3,0.3,1.6,0.8,5.2-0.3 c1.5-0.4,2.3-0.7,2.8-0.9l0.7-0.2l2.8-0.9c3.5-1.1,3.6-1.7,4.5-2.7C31,7.6,33.6,6.4,36,6.1c5-0.5,8.9,3.3,10.7,5.2 c1.7,1.8,5.1,7.3,8.1,13.4l2.9-4l0.4-0.5l-0.4,0.7l-4.6,6.9L51.6,30l-2,3.1l-6.1,9.2l-2.2,3.3L26.1,68.2c0,0,0,0,0-0.1c0,0,0,0,0,0 l0-0.1v0c0.8-1.9,9.6-15.5,14.2-22.6c1.1-1.7,2-3.1,2.5-3.8v0c0.2-0.3,0.3-0.5,0.3-0.5l0.7-1c-0.9-0.6-1.9-1.2-2.9-1.9 c-5-3.3-13.3-0.6-13.3-0.6s-8.3,2.4-10.7,7.9c-2.9,6.7-4.7,10.7-6.2,11.8c-1,0.8-4.5,2.8-7.4,1c0.4,0.8,1,1.6,1.5,2.4 c0.3,0.4,0.6,0.8,0.9,1.1c2.3,2.6,5.4,4.8,9.2,6.4c2.2,0.9,4.4,1.6,6.7,2c0.6,0.1,1.2,0.2,1.9,0.3c0.2,0,0.4,0.1,0.6,0.1 c0.1,0,0.2,0,0.3,0v0c1.5,0.2,3.1,0.3,4.6,0.3c5.2,0,9.8-0.8,13.7-2.4c4-1.6,7.5-4.1,10.3-7.3c0.2-0.2,0.4-0.4,0.6-0.6 c0.2-0.2,0.4-0.4,0.6-0.6c2.1-2.6,3.5-5.4,4.3-8.5c0.5-1.8,0.8-4,1-6.5h0c0.1-1.6,0.2-3.3,0.2-5.2V0H0z"></path> <path id="path10" inkscape:connector-curvature="0" class="st0" d="M4.1,32.6c0.2,0.8,1.1,1.2,1.8,1l3.3-1l1,3.3 c0.2,0.8,1.1,1.2,1.8,1l2.2-0.7c0.8-0.2,1.2-1.1,1-1.8c0,0,0,0,0,0l-1-3.3l3.3-1c0.8-0.2,1.2-1.1,1-1.8c0,0,0,0,0,0l-0.7-2.2 c-0.2-0.8-1-1.2-1.8-1l-3.3,1l-0.3-1l-0.7-2.3c-0.2-0.8-1-1.2-1.8-1l-2.2,0.7c-0.8,0.2-1.2,1.1-1,1.8l1,3.3l-3.3,1 c-0.8,0.2-1.2,1.1-1,1.8l0.5,1.5L4.1,32.6z"></path> <path id="path12" inkscape:connector-curvature="0" class="st0" d="M31.4,20.1c-1.4,0.4-2.2,2-1.8,3.4s1.9,2.3,3.4,1.8 c1.4-0.4,2.2-2,1.8-3.4c0,0,0,0,0,0C34.3,20.5,32.8,19.7,31.4,20.1z"></path> <path id="path14" inkscape:connector-curvature="0" class="st0" d="M39.1,24.3c-1.4,0.4-2.2,2-1.8,3.4c0.4,1.4,1.9,2.3,3.4,1.8 s2.2-2,1.8-3.4c0,0,0,0,0,0C42,24.6,40.5,23.8,39.1,24.3z"></path> <path id="path16" inkscape:connector-curvature="0" class="st0" d="M35.5,12.4c-1.4,0.4-2.2,2-1.8,3.4c0.4,1.4,1.9,2.2,3.4,1.8 c1.4-0.4,2.2-2,1.8-3.4c0,0,0,0,0,0C38.4,12.8,36.9,12,35.5,12.4z"></path> <path id="path18" inkscape:connector-curvature="0" class="st0" d="M44.8,21.7c1.4-0.4,2.2-2,1.8-3.4s-1.9-2.3-3.4-1.8 c-1.4,0.4-2.2,2-1.8,3.4C41.8,21.4,43.3,22.2,44.8,21.7z"></path> </svg> 