<?xml version="1.0" encoding="UTF-8"?> <svg xmlns="http://www.w3.org/2000/svg" xmlns:xlink="http://www.w3.org/1999/xlink" version="1.1" id="Camada_1" x="0px" y="0px" viewBox="0 0 48 56" style="enable-background:new 0 0 48 56;" xml:space="preserve"> <style type="text/css"> .st0{fill:#01347C;} </style> <g id="surface1"> <path class="st0" d="M25,35.7l-0.2,4.1l2.9-8c-1,1.7-2.8,2.9-3.8,3.8c-0.6,0.5-1.5,1.3-2.3,2.2l1.3,3.7l-0.2-3.7 C22.7,37.9,23.2,37.2,25,35.7z"></path> <path class="st0" d="M0.1,0v31.4c0,4.1,0.3,7.4,0.9,9.8c0.1,0.5,0.2,0.9,0.4,1.4c0.2,0.7,0.5,1.4,0.8,2.1c0.5,1.1,1.1,2.1,1.8,3.1 c0.2,0.3,0.5,0.6,0.7,0.9c1.9,2.1,4.3,3.8,7.4,5c1.7,0.7,3.5,1.2,5.3,1.6c0.5,0.1,0.9,0.2,1.4,0.2c0.2,0,0.4,0.1,0.6,0.1 c0.1,0,0.2,0,0.2,0c0,0,0,0,0,0c1.2,0.1,2.4,0.2,3.7,0.2c4.1,0,7.8-0.6,11-1.9c3.2-1.3,5.9-3.2,8.2-5.7c0.2-0.2,0.3-0.3,0.4-0.5 c0.1-0.2,0.3-0.3,0.4-0.5c1.7-2.1,2.8-4.3,3.5-6.7c0.4-1.4,0.7-3.2,0.8-5.1c0.1-1.3,0.2-2.6,0.2-4.1V0H0.1z M23.8,4.2 c1,0,1.9,0.7,2.1,1.6C26,6,26,6.2,26,6.4C26,7,25.7,7.6,25.3,8c0.4,0.9,0.5,2.4,0.5,2.4s-0.8-0.3-2.1-0.3c-1.3,0-1.8,0.3-1.8,0.3 c0.1-0.6,0.1-1.1,0.2-1.4c0.1-0.4,0.2-0.7,0.3-0.9c-0.5-0.4-0.7-1-0.7-1.6C21.6,5.2,22.6,4.2,23.8,4.2z M18.6,12.9 c0.8-0.8,2.8-2,5.2-2s4,0.9,5.5,2.3s1.6,3.1,1.6,3.4c0,0.3-0.1,1.1-1.1,1.1c-0.9,0-1.4-0.8-2.1-1.4c-0.7-0.6-2.2-1.9-4.1-1.9 c-1.9,0-3.2,1.3-3.2,3c0,1.6,0.9,2.3,0.9,2.3l0,3.3c0,0-1.8-1.1-2.9-2.3c-1.1-1.2-1.7-2.5-1.7-4.1C16.7,15.1,17.7,13.8,18.6,12.9z M25.7,15.8l-0.5,14.3c0,0-0.4,1.1-1.2,1.9c-0.7,0.9-1.6,1.5-1.6,1.5l-0.6-17.8c0,0,1-0.5,2-0.5C24.9,15.2,25.7,15.8,25.7,15.8z M17.9,39.8c0.1-0.3,0.3-0.7,0.6-1l0.9,2.3c0,0.1,0,0.2,0,0.3c-0.1,1.2,0.5,2,2.1,2.9c0,0,0.1,0.1,0.1,0.1c0,0,0,0,0,0 c0,0,0,0,0.1,0.1c0,0,0,0,0,0.1c0,0,0,0,0,0c0,0,0,0.1,0,0.1c0,0,0,0,0,0c0,0.1-0.1,0.2-0.4,0.2C18.8,44.3,16.8,42.8,17.9,39.8z M46.1,16.5l-3.5,5.2l-1.2,1.8l-1.6,2.4l-4.9,7.2l-1.7,2.6L21,53.6c0,0,0,0,0-0.1c0,0,0,0,0,0c0.1-0.2,0.5-0.9,1-1.8l1.1-1.8 l-1.6-4.5c0.3,0,0.6-0.2,0.7-0.5c0.1-0.4-0.1-0.8-0.5-1c-0.4-0.2-0.7-0.4-1-0.7l-12-32.3h3.2l9,25.2c0.9-0.9,1.9-1.7,2.6-2.3 c1.6-1.5,2.2-2.7,2.5-3.7c0.1-0.6,0.1-1.9,0.1-1.9l0.1-4.7c0,0,0.7,0.6,1.1,1.2c0.4,0.6,1.4,1.9,1.1,4.8c0,0.1,0,0.1,0,0.2 l6.8-18.8h3.1L24.6,47.6l2.2-3.5c2-3.1,4.1-6.3,5.6-8.6c0.9-1.4,1.6-2.4,2-3v0c0.2-0.3,0.3-0.4,0.3-0.4l4.4-6.1l1.8-2.4l1.3-1.8 l4.1-5.7l0.3-0.4L46.1,16.5z"></path> </g> </svg> 