<?xml version="1.0" encoding="UTF-8"?> <svg xmlns:sodipodi="http://sodipodi.sourceforge.net/DTD/sodipodi-0.dtd" xmlns:dc="http://purl.org/dc/elements/1.1/" xmlns:svg="http://www.w3.org/2000/svg" xmlns:inkscape="http://www.inkscape.org/namespaces/inkscape" xmlns:cc="http://creativecommons.org/ns#" xmlns:rdf="http://www.w3.org/1999/02/22-rdf-syntax-ns#" xmlns="http://www.w3.org/2000/svg" xmlns:xlink="http://www.w3.org/1999/xlink" version="1.1" id="Layer_1" x="0px" y="0px" viewBox="0 0 60 71" style="enable-background:new 0 0 60 71;" xml:space="preserve"> <style type="text/css"> .st0{fill:#01347C;} </style> <path id="path8" inkscape:connector-curvature="0" class="st0" d="M60,0v17.2L57.5,21l0.6-0.9l-0.4,0.5l-5.2,7.2l-1.6,2.3l-2.2,3.1 l-5.6,7.8c0,0-0.1,0.2-0.3,0.5v0c-0.5,0.7-1.3,2-2.5,3.8c-1.6,2.5-3.8,5.9-5.9,9.2c-2-1.2-1.8-3.9-1.8-3.9l0.2-12.2 c20-0.3,16.5-18.4,16.6-20.5c0.1-2.1,3.2-2.1,3.2-2.1v-1.2C42.2,15.4,44.4,21.6,43,29c-1.4,7.3-10.3,7.3-10.3,7.3 s-0.4-12.7,0.1-16.8c0.5-4.1,5.7-3.2,5.7-3.2V15H21.5v1.2c0.6-0.1,1.2-0.1,1.9,0h0c1.5,0.1,3.5,0.8,3.8,3.3 c0.5,4.1,0.1,16.8,0.1,16.8s-8.9,0-10.3-7.3c-0.5-2.5-0.6-4.9-0.8-7c-0.6-4-1.9-6.8-8.7-7.4v1.2c0,0,3.1,0,3.2,2.1 c0,0.9-0.5,4.5,0.2,8.5c1,5.6,4.7,11.9,16.4,12.1l0.2,12.2c0,0,0.4,4.2-3.6,4.5h-2.3v1h11.8c-3.6,5.7-6.9,11-7.3,11.9v0 c0,0.1,0,0.1,0,0.1l-1.7,2.6c-0.8-0.1-1.7-0.2-2.5-0.4c-2.3-0.4-4.5-1.1-6.7-2c-3.8-1.6-6.9-3.8-9.2-6.4c-0.3-0.4-0.6-0.8-0.9-1.1 c-1.8-2.5-3.1-5.3-3.8-8.3C0.4,49.3,0,45.1,0,39.9V0H60z"></path> <path id="path10" inkscape:connector-curvature="0" class="st0" d="M60,17.2v22.7c0,1.9-0.1,3.6-0.2,5.2v0c-0.2,2.5-0.6,4.7-1.1,6.5 c-0.8,3-2.3,5.8-4.3,8.5c-0.2,0.2-0.4,0.4-0.6,0.6c-0.2,0.2-0.4,0.4-0.6,0.6c-2.8,3.2-6.4,5.7-10.3,7.3c-4,1.6-8.6,2.4-13.7,2.4 c-1.5,0-3.1-0.1-4.6-0.3l0,0c-0.1,0-0.2,0-0.3,0l1.7-2.6l8-12.1l0.9-1.3l7.6-11.4l0.8-1.2l6.1-9.2l2-3.1l1.5-2.2l4.4-6.7L60,17.2z"></path> <polygon id="polygon12" class="st0" points="41.2,45.4 26,68.1 34.1,56.1 35,54.7 42.6,43.3 "></polygon> </svg> 