<?xml version="1.0" encoding="UTF-8"?> <svg xmlns:sodipodi="http://sodipodi.sourceforge.net/DTD/sodipodi-0.dtd" xmlns:dc="http://purl.org/dc/elements/1.1/" xmlns:svg="http://www.w3.org/2000/svg" xmlns:inkscape="http://www.inkscape.org/namespaces/inkscape" xmlns:cc="http://creativecommons.org/ns#" xmlns:rdf="http://www.w3.org/1999/02/22-rdf-syntax-ns#" xmlns="http://www.w3.org/2000/svg" xmlns:xlink="http://www.w3.org/1999/xlink" version="1.1" id="Layer_1" x="0px" y="0px" viewBox="0 0 60 71" style="enable-background:new 0 0 60 71;" xml:space="preserve"> <style type="text/css"> .st0{fill:#01347C;} </style> <path id="path8" inkscape:connector-curvature="0" class="st0" d="M34.4,45.4c-3,0-5.9,0-8.9,0c-0.2,0-0.3,0.1-0.4,0.2 c-0.5,1-1,1.9-1.5,2.9h12.7c-0.5-1-1-2-1.5-2.9C34.8,45.4,34.6,45.4,34.4,45.4z"></path> <path id="path10" inkscape:connector-curvature="0" class="st0" d="M0,0v39.9c0,5.2,0.4,9.4,1.1,12.5c0.7,3,2,5.8,3.8,8.3 c0.3,0.4,0.6,0.8,0.9,1.1c2.3,2.6,5.4,4.8,9.3,6.4c2.2,0.9,4.4,1.6,6.7,2.1c0.6,0.1,1.3,0.2,1.9,0.3c0.2,0,0.4,0.1,0.6,0.1 c0.1,0,0.2,0,0.3,0c1.5,0.2,3.1,0.3,4.6,0.3c5.2,0,9.8-0.8,13.7-2.4c4-1.6,7.5-4.1,10.3-7.3c0.2-0.2,0.4-0.4,0.6-0.6 c0.2-0.2,0.4-0.4,0.6-0.6c2.1-2.6,3.5-5.5,4.3-8.5c0.5-1.8,0.8-4,1-6.5v0c0.1-1.6,0.2-3.3,0.2-5.2V0H0z M57.2,21.6l-4.7,7L51,30.9 L49,34l-6.1,9.2l-2.2,3.3L25.5,69.1c0,0,0,0,0-0.1c0,0,0,0,0,0c0-0.1,0.1-0.2,0.1-0.3l0,0c1-2,6.2-10.1,10.5-16.9H11.9 c-1.5,0-3,0-4.5,0c-1.6,0-2.9-1.2-3-2.9c0-0.2,0.2-0.5,0.3-0.7c2.9-2.9,5.8-5.8,8.6-8.7c0.2-0.2,0.3-0.3,0.5-0.5 c-0.5-0.2-1-0.4-1.4-0.6c-1.2-0.8-1.7-2-1.7-3.4c0-2.9,0-5.8,0-8.6V16.1c0-0.5,0-1,0.1-1.5c0.3-2,1.7-3.1,3.6-3.2h17.4 c4.5,0,9,0.1,13.5,0c2,0,3.9,1.4,3.9,3.9c0,5.8,0,11.5,0,17.3l1.1-1.5l1.6-2.3l4.6-6.4l0,0L57.2,21.6l0.3-0.5 C57.4,21.2,57.2,21.6,57.2,21.6z"></path> <path id="path12" inkscape:connector-curvature="0" class="st0" d="M38.8,40.5c-7.5,0-15.1,0-22.6,0c-0.2,0-0.5,0-0.7,0.2 c-1,0.9-1.9,1.9-3,3h28.9c0.3-0.5,0.6-0.9,0.8-1.2v0c0.2-0.3,0.3-0.5,0.3-0.5l1-1.4C42,40.5,40.4,40.5,38.8,40.5z"></path> <path id="path14" inkscape:connector-curvature="0" class="st0" d="M45.2,14.2H14.8c-1.1,0-1.3,0.2-1.3,1.4V28c0,2.4,0,4.7,0,7.1 c0,0.8,0.3,1.1,1.1,1.1h30.6c1.1,0,1.3-0.2,1.3-1.4V15.5C46.5,14.4,46.3,14.2,45.2,14.2L45.2,14.2z M16.6,17.2h12v2.3h-12V17.2z M33,20.7v2.3H21v-2.3L33,20.7z M25.7,33.6h-9.2v-2.3h9.2L25.7,33.6z M33,30.1H21v-2.3h12V30.1z M36.9,26.6h-12v-2.3h12L36.9,26.6z"></path> </svg> 