<?xml version="1.0" encoding="UTF-8"?> <svg xmlns="http://www.w3.org/2000/svg" width="50" height="50" viewBox="0 0 50 50" fill="none"><mask id="mask0_897_3589" style="mask-type:alpha" maskUnits="userSpaceOnUse" x="4" y="4" width="42" height="42"><rect x="4" y="4" width="42" height="42" fill="#D9D9D9"></rect></mask><g mask="url(#mask0_897_3589)"><path d="M16.9231 39.9187C15.9965 39.8895 15.1153 39.6506 14.2795 39.2019C13.4438 38.7532 12.6535 38.0947 11.9086 37.2264C10.7981 35.9274 9.93152 34.3557 9.30893 32.5115C8.68631 30.6673 8.375 28.7636 8.375 26.8005C8.375 24.4918 8.80915 22.3234 9.67744 20.2952C10.5457 18.267 11.7309 16.5019 13.2329 14.9998C14.735 13.4977 16.4973 12.3097 18.5199 11.4359C20.5425 10.562 22.7025 10.125 25 10.125C27.2974 10.125 29.4574 10.5665 31.48 11.4494C33.5026 12.3322 35.2621 13.5308 36.7586 15.0453C38.255 16.5596 39.4402 18.3371 40.3141 20.3777C41.188 22.4182 41.6249 24.6051 41.6249 26.9384C41.6249 29.0048 41.2912 30.9617 40.6237 32.8093C39.9562 34.6569 39.019 36.2291 37.8119 37.5259C37.0626 38.3201 36.2835 38.9175 35.4747 39.318C34.6659 39.7185 33.8285 39.9187 32.9625 39.9187C32.4935 39.9187 32.0303 39.8615 31.5726 39.7471C31.1149 39.6326 30.6572 39.461 30.1995 39.2321L27.7495 38.0071C27.3322 37.7985 26.8902 37.642 26.4235 37.5377C25.9569 37.4334 25.4767 37.3812 24.9831 37.3812C24.4783 37.3812 23.9954 37.4334 23.5343 37.5377C23.0733 37.642 22.6397 37.7985 22.2336 38.0071L19.8004 39.2321C19.3136 39.4901 18.8368 39.6764 18.3701 39.7908C17.9035 39.9052 17.4211 39.9479 16.9231 39.9187ZM16.9937 37.2937C17.2562 37.2937 17.526 37.2646 17.8031 37.2062C18.0802 37.1479 18.35 37.0458 18.6125 36.9L21.0625 35.675C21.675 35.3542 22.3093 35.1208 22.9656 34.975C23.6218 34.8292 24.2854 34.7562 24.9562 34.7562C25.627 34.7562 26.2979 34.8292 26.9687 34.975C27.6395 35.1208 28.2812 35.3542 28.8937 35.675L31.3875 36.9C31.65 37.0458 31.9125 37.1479 32.175 37.2062C32.4375 37.2646 32.7 37.2937 32.9625 37.2937C33.5166 37.2937 34.0444 37.1479 34.5459 36.8562C35.0473 36.5646 35.546 36.1271 36.0418 35.5437C36.9751 34.4354 37.7015 33.1083 38.2209 31.5625C38.7403 30.0167 39 28.4215 39 26.7769C39 22.8686 37.6437 19.5537 34.9312 16.8322C32.2187 14.1107 28.9083 12.75 25 12.75C21.0916 12.75 17.7812 14.1208 15.0687 16.8625C12.3562 19.6042 11 22.9292 11 26.8375C11 28.5 11.2725 30.1187 11.8177 31.6937C12.3629 33.2687 13.1112 34.5958 14.0625 35.675C14.5583 36.2583 15.0395 36.674 15.5062 36.9219C15.9729 37.1698 16.4687 37.2937 16.9937 37.2937ZM25 29.8125C25.8503 29.8125 26.5733 29.5146 27.1689 28.9189C27.7646 28.3233 28.0624 27.6003 28.0624 26.75C28.0624 26.5054 28.0321 26.2637 27.9715 26.0248C27.911 25.7858 27.8257 25.5553 27.7158 25.3332L30.425 21.7793C30.7839 22.1697 31.0981 22.5987 31.3673 23.0666C31.6365 23.5343 31.8609 24.0386 32.0404 24.5793H34.7528C34.248 22.2482 33.0875 20.3501 31.2713 18.8851C29.4551 17.4201 27.3647 16.6875 25 16.6875C22.6352 16.6875 20.5375 17.4246 18.7067 18.8986C16.876 20.3726 15.7172 22.2662 15.2303 24.5793H17.9259C18.4128 22.9931 19.3113 21.7187 20.6216 20.7562C21.9318 19.7937 23.3913 19.3125 25 19.3125C25.6192 19.3125 26.2065 19.3871 26.7618 19.5363C27.3171 19.6855 27.8494 19.898 28.3586 20.174L25.6226 23.7818C25.5306 23.7593 25.4268 23.738 25.3113 23.7178C25.1957 23.6976 25.0919 23.6875 25 23.6875C24.1496 23.6875 23.4267 23.9854 22.831 24.581C22.2353 25.1767 21.9375 25.8997 21.9375 26.75C21.9375 27.6003 22.2353 28.3233 22.831 28.9189C23.4267 29.5146 24.1496 29.8125 25 29.8125Z" fill="#503190"></path></g></svg> 