<?xml version="1.0" encoding="UTF-8"?> <svg xmlns:rdf="http://www.w3.org/1999/02/22-rdf-syntax-ns#" xmlns:inkscape="http://www.inkscape.org/namespaces/inkscape" xmlns:cc="http://creativecommons.org/ns#" xmlns:sodipodi="http://sodipodi.sourceforge.net/DTD/sodipodi-0.dtd" xmlns:dc="http://purl.org/dc/elements/1.1/" xmlns:svg="http://www.w3.org/2000/svg" xmlns="http://www.w3.org/2000/svg" xmlns:xlink="http://www.w3.org/1999/xlink" version="1.1" id="Layer_1" x="0px" y="0px" viewBox="0 0 60 71" style="enable-background:new 0 0 60 71;" xml:space="preserve"> <style type="text/css"> .st0{fill:#01347C;} </style> <path class="st0" d="M-0.1,0.5v39.6c0,5.2,0.4,9.3,1.1,12.4c0.1,0.6,0.3,1.1,0.5,1.7c0.3,0.9,0.6,1.8,1,2.7c0.6,1.4,1.4,2.7,2.3,3.9 c0.3,0.4,0.6,0.8,0.9,1.1c2.3,2.6,5.4,4.7,9.2,6.3c2.2,0.9,4.4,1.6,6.7,2c0.6,0.1,1.2,0.2,1.8,0.3c0.3,0,0.5,0.1,0.7,0.1 c0.1,0,0.2,0,0.3,0c0,0,0,0,0,0c1.5,0.2,3,0.3,4.6,0.3c5.2,0,9.7-0.8,13.7-2.4c4-1.6,7.4-4,10.3-7.2c0.2-0.2,0.4-0.4,0.6-0.6 c0.2-0.2,0.4-0.4,0.6-0.6c2.1-2.6,3.5-5.4,4.3-8.4c0.5-1.8,0.8-4,1.1-6.5c0.1-1.6,0.2-3.3,0.2-5.2V0.5H-0.1z M23.9,37.4l-0.2-18 l1.2-0.5l5.6,14.2C30,33.5,29.7,34.3,30,35c0.3,0.8,1.2,1.2,2,0.9c0.8-0.3,1.2-1.2,0.9-2c-0.3-0.7-1-1.1-1.7-1l-5.6-14.2l1.2-0.5 l12.3,13.4c0.7,0.8,1.1,1.7,1.1,2.8l0.3,9.2l-9.3,3.8l-6-6.6C24.4,39.8,23.9,38.6,23.9,37.4z M57.5,21.2l-4.4,6.6L51.6,30l-2,3 l-6.1,9.1l-2.2,3.2L26.1,68c0,0,0,0,0-0.1c0,0,0,0,0,0c0.1-0.3,0.6-1.1,1.3-2.3l1.4-2.2l1.8-2.9l2.7-4.4c1.3-2.1,2.7-4.2,4-6.2 l-4.5,1.8l-1.3-3.3l9.1-3.6c1-1.5,1.7-2.7,2.1-3.3v0c0.2-0.3,0.3-0.5,0.3-0.5l5.6-7.7l2.2-3.1l0.6-0.8l-0.6-1.6l1.4-0.6 c-4.5-9.9-15.6-15-26-12.1l0.5,1.2l-4.3,1.7l-0.5-1.3c-9.7,5-14.4,16.4-10.8,26.8l1.6-0.6l1.7,4.3L10.1,49l-1.7-4.3l1.5-0.6 c-3.8-10.9,1-22.9,11.1-28.3l-12.6,5c0.1,0.7-0.3,1.5-1,1.8c-0.8,0.3-1.8-0.1-2.1-0.9c-0.3-0.8,0.1-1.8,0.9-2.1c0.7-0.3,1.5,0,2,0.6 L21.2,15l-0.5-1.2l4.3-1.7l0.5,1.2l13.8-5.5c-0.1-0.7,0.3-1.5,1-1.8c0.8-0.3,1.8,0.1,2.1,0.9c0.3,0.8-0.1,1.8-0.9,2.1 c-0.7,0.3-1.5,0-2-0.6L26,13.8c11-2.9,22.7,2.4,27.4,12.9l4.2-5.8l0.4-0.5L57.5,21.2z"></path> </svg> 