<?xml version="1.0" encoding="UTF-8"?> <svg xmlns="http://www.w3.org/2000/svg" width="50" height="50" viewBox="0 0 50 50" fill="none"><mask id="mask0_299_9444" style="mask-type:alpha" maskUnits="userSpaceOnUse" x="4" y="4" width="42" height="42"><rect x="4" y="4" width="42" height="42" fill="#D9D9D9"></rect></mask><g mask="url(#mask0_299_9444)"><path d="M24.9652 41.2326C23.506 40.1562 21.9377 39.3245 20.2604 38.7375C18.5831 38.1506 16.8455 37.8572 15.0476 37.8572C13.9433 37.8572 12.8588 37.9795 11.7939 38.2243C10.7291 38.469 9.70253 38.8292 8.71425 39.3047C8.06933 39.6017 7.45572 39.5576 6.87341 39.1725C6.29114 38.7874 6 38.2422 6 37.537V17.9246C6 17.5349 6.10323 17.1747 6.3097 16.8441C6.51617 16.5135 6.80268 16.2728 7.16923 16.122C8.39413 15.5258 9.67065 15.0786 10.9988 14.7805C12.3269 14.4824 13.6765 14.3334 15.0476 14.3334C16.8084 14.3334 18.5228 14.5828 20.1908 15.0816C21.8588 15.5803 23.4619 16.2821 25 17.1869V37.9685C26.5265 37.0035 28.1371 36.2913 29.8318 35.8319C31.5265 35.3726 33.2333 35.1429 34.9524 35.1429C35.9917 35.1429 36.9736 35.216 37.8981 35.3621C38.8226 35.5083 39.7778 35.7391 40.7637 36.0546C40.8913 36.0894 41.0103 36.0923 41.1204 36.0633C41.2306 36.0343 41.2858 35.9386 41.2858 35.7762V15.4539C41.5989 15.5467 41.9046 15.6499 42.2027 15.7636C42.5008 15.8773 42.7913 16.0199 43.0743 16.1916C43.3829 16.3424 43.6143 16.5628 43.7686 16.8528C43.9229 17.1428 44 17.4537 44 17.7854V37.5021C44 38.2074 43.7001 38.7497 43.1004 39.129C42.5007 39.5083 41.861 39.5553 41.1813 39.27C40.2046 38.806 39.1925 38.4545 38.1451 38.2155C37.0977 37.9766 36.0335 37.8572 34.9524 37.8572C33.1429 37.8572 31.3878 38.1419 29.6873 38.7114C27.9869 39.281 26.4128 40.1213 24.9652 41.2326ZM28.619 33.3334V17.0477L37.6667 8V25.1905L28.619 33.3334ZM22.2857 36.6567V18.8293C21.1513 18.2679 19.9763 17.8306 18.7606 17.5174C17.545 17.2042 16.3073 17.0476 15.0476 17.0476C13.9317 17.0476 12.8721 17.1503 11.8687 17.3556C10.8654 17.5609 9.92406 17.8456 9.04481 18.2099C8.95201 18.2447 8.87371 18.294 8.80993 18.3578C8.74611 18.4216 8.71421 18.4999 8.71421 18.5927V35.8389C8.71421 36.0013 8.76931 36.097 8.87951 36.126C8.98971 36.155 9.10861 36.1463 9.23621 36.0999C10.1294 35.7774 11.0498 35.5373 11.9975 35.3795C12.9451 35.2218 13.9618 35.1429 15.0476 35.1429C16.4001 35.1429 17.6923 35.2827 18.9242 35.5622C20.1561 35.8418 21.2766 36.2066 22.2857 36.6567Z" fill="#333333"></path></g></svg> 