<?xml version="1.0" encoding="UTF-8"?> <svg xmlns="http://www.w3.org/2000/svg" width="50" height="50" viewBox="0 0 50 50" fill="none"><mask id="mask0_897_3508" style="mask-type:alpha" maskUnits="userSpaceOnUse" x="4" y="4" width="42" height="42"><rect x="4" y="4" width="42" height="42" fill="#D9D9D9"></rect></mask><g mask="url(#mask0_897_3508)"><path d="M23.25 26.75C23.7458 26.75 24.1615 26.5823 24.4969 26.2469C24.8323 25.9115 25 25.4958 25 25C25 24.5042 24.8323 24.0885 24.4969 23.7531C24.1615 23.4177 23.7458 23.25 23.25 23.25C22.7542 23.25 22.3385 23.4177 22.0031 23.7531C21.6677 24.0885 21.5 24.5042 21.5 25C21.5 25.4958 21.6677 25.9115 22.0031 26.2469C22.3385 26.5823 22.7542 26.75 23.25 26.75ZM16.25 40.75V37.25L26.75 35.5V16.0312C26.75 15.5938 26.6188 15.2 26.3563 14.85C26.0938 14.5 25.7583 14.2958 25.35 14.2375L16.25 12.75V9.25L25.875 10.825C27.1583 11.0583 28.2083 11.6563 29.025 12.6188C29.8417 13.5813 30.25 14.7042 30.25 15.9875V38.3875L16.25 40.75ZM9.25 40.75V37.25H12.75V12.75C12.75 11.7583 13.0927 10.9271 13.7781 10.2562C14.4635 9.58542 15.2875 9.25 16.25 9.25H33.75C34.7417 9.25 35.5729 9.58542 36.2438 10.2562C36.9146 10.9271 37.25 11.7583 37.25 12.75V37.25H40.75V40.75H9.25ZM16.25 37.25H33.75V12.75H16.25V37.25Z" fill="#503190"></path></g></svg> 