<?xml version="1.0" encoding="UTF-8"?> <svg xmlns="http://www.w3.org/2000/svg" width="50" height="50" viewBox="0 0 50 50" fill="none"><mask id="mask0_915_3510" style="mask-type:alpha" maskUnits="userSpaceOnUse" x="4" y="4" width="42" height="42"><rect x="4" y="4" width="42" height="42" fill="#D9D9D9"></rect></mask><g mask="url(#mask0_915_3510)"><path d="M32.1 23.85C32.5675 23.85 32.9594 23.6919 33.2756 23.3756C33.5919 23.0594 33.75 22.6675 33.75 22.2C33.75 21.7325 33.5919 21.3406 33.2756 21.0244C32.9594 20.7081 32.5675 20.55 32.1 20.55C31.6325 20.55 31.2406 20.7081 30.9244 21.0244C30.6081 21.3406 30.45 21.7325 30.45 22.2C30.45 22.6675 30.6081 23.0594 30.9244 23.3756C31.2406 23.6919 31.6325 23.85 32.1 23.85ZM18.9 20.55H27.15V17.25H18.9V20.55ZM13.125 40.35C12.19 37.215 11.2687 34.0869 10.3612 30.9656C9.45375 27.8444 9 24.6475 9 21.375C9 18.845 9.88 16.7 11.64 14.94C13.4 13.18 15.545 12.3 18.075 12.3H26.325C27.1225 11.255 28.0919 10.4438 29.2331 9.86625C30.3744 9.28875 31.605 9 32.925 9C33.6125 9 34.1969 9.24062 34.6781 9.72187C35.1594 10.2031 35.4 10.7875 35.4 11.475C35.4 11.64 35.3794 11.805 35.3381 11.97C35.2969 12.135 35.2487 12.2863 35.1937 12.4238C35.0837 12.7263 34.9806 13.0356 34.8844 13.3519C34.7881 13.6681 34.7125 13.9913 34.6575 14.3213L38.4113 18.075H42V29.5838L37.3388 31.11L34.575 40.35H25.5V37.05H22.2V40.35H13.125ZM15.6 37.05H18.9V33.75H28.8V37.05H32.1L34.6575 28.5525L38.7 27.1913V21.375H37.05L31.275 15.6C31.275 15.05 31.3094 14.5206 31.3781 14.0119C31.4469 13.5031 31.55 12.9875 31.6875 12.465C30.89 12.685 30.1888 13.0631 29.5838 13.5994C28.9788 14.1356 28.5388 14.8025 28.2638 15.6H18.075C16.48 15.6 15.1188 16.1638 13.9913 17.2913C12.8638 18.4188 12.3 19.78 12.3 21.375C12.3 24.07 12.6712 26.7031 13.4137 29.2744C14.1562 31.8456 14.885 34.4375 15.6 37.05Z" fill="#0E77BB"></path></g></svg> 