<?xml version="1.0" encoding="UTF-8"?> <svg xmlns="http://www.w3.org/2000/svg" width="50" height="50" viewBox="0 0 50 50" fill="none"><mask id="mask0_897_3709" style="mask-type:alpha" maskUnits="userSpaceOnUse" x="4" y="4" width="42" height="42"><rect x="4" y="4" width="42" height="42" fill="#D9D9D9"></rect></mask><g mask="url(#mask0_897_3709)"><path d="M26.9347 30.2056C27.3564 30.2056 27.7153 30.058 28.0114 29.7628C28.3075 29.4676 28.4556 29.1092 28.4556 28.6875C28.4556 28.2658 28.308 27.9069 28.0128 27.6108C27.7176 27.3147 27.3592 27.1666 26.9375 27.1666C26.5158 27.1666 26.1569 27.3142 25.8608 27.6094C25.5647 27.9046 25.4166 28.263 25.4166 28.6847C25.4166 29.1064 25.5642 29.4653 25.8594 29.7614C26.1546 30.0575 26.513 30.2056 26.9347 30.2056ZM21.031 30.25L28.5 22.781L27.2307 21.5L19.75 28.9807L21.031 30.25ZM21.3242 24.5951C21.7459 24.5951 22.1048 24.4475 22.4009 24.1523C22.697 23.8571 22.8451 23.4987 22.8451 23.077C22.8451 22.6553 22.6975 22.2964 22.4023 22.0003C22.1071 21.7042 21.7487 21.5561 21.327 21.5561C20.9053 21.5561 20.5464 21.7037 20.2503 21.9989C19.9542 22.2941 19.8061 22.6525 19.8061 23.0742C19.8061 23.4959 19.9537 23.8548 20.2489 24.1509C20.5441 24.447 20.9025 24.5951 21.3242 24.5951Z" fill="#503190"></path><path d="M25.3835 40.8442C24.863 41.3647 24.2393 41.625 23.5124 41.625C22.7855 41.625 22.1618 41.3647 21.6413 40.8442L9.12881 28.3317C8.62624 27.8291 8.37777 27.2071 8.38339 26.4656C8.38899 25.7242 8.64868 25.0965 9.16245 24.5828L24.5625 9.15582C24.805 8.91727 25.0917 8.72751 25.4225 8.58655C25.7533 8.44556 26.0993 8.37506 26.4605 8.37506H38.973C39.6887 8.37506 40.3051 8.63364 40.8222 9.15079C41.3394 9.66792 41.5979 10.2843 41.5979 11V23.5125C41.5979 23.8866 41.5256 24.2387 41.3809 24.5688C41.2361 24.8989 41.037 25.1907 40.7835 25.4442L25.3835 40.8442ZM34.596 17.5625C35.2031 17.5625 35.7198 17.35 36.1461 16.925C36.5723 16.5001 36.7855 15.9841 36.7855 15.377C36.7855 14.7699 36.573 14.2532 36.148 13.827C35.7231 13.4007 35.207 13.1876 34.6 13.1876C33.9929 13.1876 33.4762 13.4 33.05 13.825C32.6237 14.25 32.4105 14.766 32.4105 15.3731C32.4105 15.9801 32.623 16.4968 33.0479 16.9231C33.4729 17.3493 33.9889 17.5625 34.596 17.5625ZM23.5199 39L38.973 23.5125V11H26.4529L10.9999 26.4875L23.5199 39Z" fill="#503190"></path></g></svg> 