<?xml version="1.0" encoding="UTF-8"?> <svg xmlns="http://www.w3.org/2000/svg" width="42" height="36" viewBox="0 0 42 36" fill="none"><path d="M34.1081 35.5032L31.8468 33.2419L35.7782 29.2355H25.9872V25.9872H35.7782L31.8468 21.9808L34.1081 19.7195L42 27.6113L34.1081 35.5032ZM3.9147 29.2355C2.83814 29.2355 1.91655 28.8522 1.14993 28.0855C0.383311 27.3189 0 26.3973 0 25.3208V3.9147C0 2.83814 0.383311 1.91656 1.14993 1.14994C1.91655 0.383314 2.83814 0 3.9147 0H31.8176C32.8941 0 33.8157 0.383314 34.5823 1.14994C35.349 1.91656 35.7323 2.83814 35.7323 3.9147V15.2924C35.4616 15.248 35.1909 15.2147 34.9202 15.1925C34.6495 15.1703 34.3788 15.1592 34.1081 15.1592C33.8374 15.1592 33.5667 15.1647 33.296 15.1758C33.0254 15.1869 32.7547 15.2147 32.484 15.2591V5.57209L17.6496 16.1169L3.24829 5.60544V25.3208C3.24829 25.5151 3.31077 25.6748 3.43572 25.7998C3.56068 25.9247 3.72034 25.9872 3.9147 25.9872H21.7559C21.7115 26.2579 21.6837 26.5286 21.6726 26.7992C21.6615 27.0699 21.656 27.3406 21.656 27.6113C21.656 27.882 21.6671 28.1527 21.6893 28.4234C21.7115 28.6941 21.7448 28.9648 21.7892 29.2355H3.9147ZM5.51378 3.24829L17.6496 12.144L30.1518 3.24829H5.51378Z" fill="#01347C"></path></svg> 