<?xml version="1.0" encoding="UTF-8"?> <svg xmlns="http://www.w3.org/2000/svg" width="50" height="50" viewBox="0 0 50 50" fill="none"><mask id="mask0_884_4231" style="mask-type:alpha" maskUnits="userSpaceOnUse" x="4" y="4" width="42" height="42"><rect x="4" y="4" width="42" height="42" fill="#D9D9D9"></rect></mask><g mask="url(#mask0_884_4231)"><path d="M17.125 10.125C18.6529 10.125 20.0966 10.4824 21.4562 11.197C22.8158 11.9115 23.9971 12.9363 25 14.2712C26.0029 12.9363 27.1841 11.9115 28.5437 11.197C29.9033 10.4824 31.3471 10.125 32.875 10.125C35.3586 10.125 37.4378 10.9625 39.1127 12.6373C40.7875 14.3121 41.6249 16.3914 41.6249 18.875C41.6249 19.0433 41.6176 19.2059 41.603 19.363C41.5885 19.5201 41.5756 19.6827 41.5643 19.851H38.9394C38.9685 19.6827 38.9859 19.5201 38.9916 19.363C38.9972 19.2059 39 19.0433 39 18.875C39 17.125 38.4166 15.6667 37.25 14.5C36.0833 13.3333 34.625 12.75 32.875 12.75C31.4929 12.75 30.2157 13.1421 29.0435 13.9262C27.8712 14.7103 26.9429 15.8013 26.2586 17.1991H23.7413C23.0458 15.7901 22.1147 14.6963 20.9481 13.9178C19.7814 13.1393 18.507 12.75 17.125 12.75C15.3862 12.75 13.9307 13.3333 12.7584 14.5C11.5861 15.6667 11 17.125 11 18.875C11 19.0433 11.0028 19.2059 11.0084 19.363C11.014 19.5201 11.0314 19.6827 11.0606 19.851H8.43559C8.42436 19.6827 8.41146 19.5201 8.39688 19.363C8.38229 19.2059 8.375 19.0433 8.375 18.875C8.375 16.3914 9.21242 14.3121 10.8873 12.6373C12.5621 10.9625 14.6413 10.125 17.125 10.125ZM14.4193 30.149H18.0908C19.0242 31.0644 20.0562 32.0555 21.187 33.1224C22.3177 34.1892 23.5887 35.3609 25 36.6375C26.4112 35.3609 27.6822 34.1892 28.8129 33.1224C29.9437 32.0555 30.9758 31.0644 31.9091 30.149H35.6076C34.5329 31.2955 33.2849 32.5441 31.8636 33.8947C30.4423 35.2453 28.7983 36.7631 26.9317 38.4481L25 40.1845L23.0683 38.4481C21.2016 36.7631 19.5621 35.2453 18.1498 33.8947C16.7375 32.5441 15.494 31.2955 14.4193 30.149ZM23.3375 31.5625C23.6156 31.5625 23.854 31.4811 24.0526 31.3185C24.2511 31.1558 24.3975 30.9444 24.4918 30.6841L27.1403 22.7115L29.0754 25.6091C29.2213 25.82 29.4086 25.9899 29.6375 26.119C29.8663 26.248 30.1153 26.3125 30.3846 26.3125H43.8124V23.6875H30.9701L27.8504 19.0399C27.7203 18.8448 27.5503 18.6984 27.3406 18.6007C27.1308 18.5031 26.9047 18.4543 26.6625 18.4543C26.3843 18.4543 26.1431 18.5357 25.9389 18.6983C25.7348 18.861 25.5912 19.0725 25.5082 19.3327L22.8596 27.2953L20.9177 24.3909C20.7719 24.18 20.5846 24.0101 20.3557 23.8811C20.1269 23.752 19.8778 23.6875 19.6086 23.6875H6.1875V26.3125H18.9961L22.1327 30.9769C22.2628 31.1833 22.4356 31.3325 22.6509 31.4245C22.8663 31.5165 23.0952 31.5625 23.3375 31.5625Z" fill="#333333"></path></g></svg> 