<?xml version="1.0" encoding="UTF-8"?> <svg xmlns="http://www.w3.org/2000/svg" width="50" height="50" viewBox="0 0 50 50" fill="none"><mask id="mask0_861_3635" style="mask-type:alpha" maskUnits="userSpaceOnUse" x="4" y="4" width="42" height="42"><rect x="4" y="4" width="42" height="42" fill="#D9D9D9"></rect></mask><g mask="url(#mask0_861_3635)"><path d="M11.7879 36.6989C13.6668 35.3045 15.7137 34.2035 17.9285 33.3958C20.1432 32.5881 22.5004 32.1843 25 32.1843C27.4996 32.1843 29.8568 32.5881 32.0715 33.3958C34.2863 34.2035 36.3332 35.3045 38.2121 36.6989C39.5866 35.1883 40.6756 33.4397 41.4791 31.4531C42.2825 29.4664 42.6843 27.3154 42.6843 25C42.6843 20.1 40.9619 15.9276 37.5171 12.4829C34.0724 9.03812 29.9 7.31574 25 7.31574C20.1 7.31574 15.9276 9.03812 12.4829 12.4829C9.03812 15.9276 7.31574 20.1 7.31574 25C7.31574 27.3154 7.71747 29.4664 8.52092 31.4531C9.32438 33.4397 10.4134 35.1883 11.7879 36.6989ZM25.0007 26.6578C22.9824 26.6578 21.2804 25.9652 19.8946 24.5798C18.5087 23.1944 17.8158 21.4926 17.8158 19.4743C17.8158 17.4561 18.5085 15.754 19.8939 14.3682C21.2793 12.9824 22.9811 12.2895 24.9993 12.2895C27.0176 12.2895 28.7196 12.9822 30.1054 14.3676C31.4913 15.753 32.1842 17.4548 32.1842 19.473C32.1842 21.4913 31.4915 23.1933 30.1061 24.5791C28.7207 25.9649 27.0189 26.6578 25.0007 26.6578ZM25 46C22.0838 46 19.3483 45.4516 16.7935 44.3548C14.2386 43.2581 12.016 41.7645 10.1257 39.8743C8.23545 37.984 6.74194 35.7614 5.64519 33.2065C4.5484 30.6517 4 27.9162 4 25C4 22.0838 4.5484 19.3483 5.64519 16.7935C6.74194 14.2386 8.23545 12.016 10.1257 10.1257C12.016 8.23545 14.2386 6.74195 16.7935 5.64519C19.3483 4.5484 22.0838 4 25 4C27.9162 4 30.6517 4.5484 33.2065 5.64519C35.7614 6.74195 37.984 8.23545 39.8743 10.1257C41.7645 12.016 43.2581 14.2386 44.3548 16.7935C45.4516 19.3483 46 22.0838 46 25C46 27.9162 45.4516 30.6517 44.3548 33.2065C43.2581 35.7614 41.7645 37.984 39.8743 39.8743C37.984 41.7645 35.7614 43.2581 33.2065 44.3548C30.6517 45.4516 27.9162 46 25 46ZM25 42.6843C26.9952 42.6843 28.9187 42.3633 30.7708 41.7214C32.6228 41.0795 34.2673 40.1818 35.7041 39.0284C34.2673 37.9174 32.6441 37.0516 30.8345 36.431C29.025 35.8103 27.0802 35.5 25 35.5C22.9198 35.5 20.9714 35.8068 19.1548 36.4203C17.3382 37.0339 15.7185 37.9032 14.2959 39.0284C15.7327 40.1818 17.3772 41.0795 19.2292 41.7214C21.0813 42.3633 23.0048 42.6843 25 42.6843ZM25 23.3422C26.0996 23.3422 27.0192 22.9723 27.759 22.2326C28.4986 21.4929 28.8685 20.5733 28.8685 19.4737C28.8685 18.3741 28.4986 17.4544 27.759 16.7147C27.0192 15.975 26.0996 15.6052 25 15.6052C23.9004 15.6052 22.9808 15.975 22.241 16.7147C21.5014 17.4544 21.1315 18.3741 21.1315 19.4737C21.1315 20.5733 21.5014 21.4929 22.241 22.2326C22.9808 22.9723 23.9004 23.3422 25 23.3422Z" fill="#01347C"></path></g></svg> 