<?xml version="1.0" encoding="UTF-8"?> <svg xmlns="http://www.w3.org/2000/svg" width="50" height="50" viewBox="0 0 50 50" fill="none"><mask id="mask0_884_4235" style="mask-type:alpha" maskUnits="userSpaceOnUse" x="4" y="4" width="42" height="42"><rect x="4" y="4" width="42" height="42" fill="#D9D9D9"></rect></mask><g mask="url(#mask0_884_4235)"><path d="M12.75 39.875C11.6338 39.875 10.8404 39.3769 10.3699 38.3808C9.8993 37.3846 10.0129 36.4581 10.7106 35.601L20.6251 23.5529V12.75H18.5385C18.1667 12.75 17.8549 12.6242 17.6034 12.3725C17.3518 12.1208 17.226 11.809 17.226 11.4369C17.226 11.0649 17.3518 10.7533 17.6034 10.502C17.8549 10.2507 18.1667 10.125 18.5385 10.125H31.4615C31.8334 10.125 32.1451 10.2509 32.3966 10.5026C32.6482 10.7542 32.774 11.0661 32.774 11.4381C32.774 11.8102 32.6482 12.1218 32.3966 12.3731C32.1451 12.6244 31.8334 12.75 31.4615 12.75H29.375V23.5529L39.2894 35.601C39.9871 36.4581 40.1007 37.3846 39.6301 38.3808C39.1596 39.3769 38.3662 39.875 37.25 39.875H12.75ZM16.25 35.5H33.75L27.8 28.5H22.2L16.25 35.5ZM12.75 37.25H37.25L26.75 24.475V12.75H23.25V24.475L12.75 37.25Z" fill="#333333"></path></g></svg> 