<?xml version="1.0" encoding="UTF-8"?> <svg xmlns="http://www.w3.org/2000/svg" width="38" height="42" viewBox="0 0 38 42" fill="none"><path d="M5.52627 42C3.98178 42 2.6746 41.4651 1.60474 40.3953C0.534912 39.3254 0 38.0182 0 36.4737V30.0972H6.6316V0H37.5789V36.4737C37.5789 38.0182 37.044 39.3254 35.9742 40.3953C34.9043 41.4651 33.5972 42 32.0527 42H5.52627ZM32.0527 38.6843C32.679 38.6843 33.204 38.4724 33.6277 38.0487C34.0513 37.625 34.2632 37.1 34.2632 36.4737V3.31574H9.94734V30.0972H29.8421V36.4737C29.8421 37.1 30.054 37.625 30.4777 38.0487C30.9013 38.4724 31.4263 38.6843 32.0527 38.6843ZM12.583 13.6882V10.3725H31.6275V13.6882H12.583ZM12.583 20.0647V16.749H31.6275V20.0647H12.583ZM5.52627 38.6843H26.5264V33.4129H3.31574V36.4737C3.31574 37.1 3.52759 37.625 3.95127 38.0487C4.37496 38.4724 4.89996 38.6843 5.52627 38.6843ZM5.52627 38.6843H3.31574H26.5264H5.52627Z" fill="#01347C"></path></svg> 